<?xml version="1.0" encoding="UTF-8" standalone="no"?>
<svg
   xmlns:dc="http://purl.org/dc/elements/1.1/"
   xmlns:cc="http://creativecommons.org/ns#"
   xmlns:rdf="http://www.w3.org/1999/02/22-rdf-syntax-ns#"
   xmlns:svg="http://www.w3.org/2000/svg"
   xmlns="http://www.w3.org/2000/svg"
   xmlns:sodipodi="http://sodipodi.sourceforge.net/DTD/sodipodi-0.dtd"
   xmlns:inkscape="http://www.inkscape.org/namespaces/inkscape"
   fill="#000000"
   height="800px"
   width="800px"
   version="1.1"
   id="Capa_1"
   viewBox="0 0 187.334 187.334"
   xml:space="preserve"
   sodipodi:docname="books.svg"
   inkscape:version="1.0.2-2 (e86c870879, 2021-01-15)"><metadata
   id="metadata9"><rdf:RDF><cc:Work
       rdf:about=""><dc:format>image/svg+xml</dc:format><dc:type
         rdf:resource="http://purl.org/dc/dcmitype/StillImage" /></cc:Work></rdf:RDF></metadata><defs
   id="defs7" /><sodipodi:namedview
   pagecolor="#ffffff"
   bordercolor="#666666"
   borderopacity="1"
   objecttolerance="10"
   gridtolerance="10"
   guidetolerance="10"
   inkscape:pageopacity="0"
   inkscape:pageshadow="2"
   inkscape:window-width="1920"
   inkscape:window-height="1057"
   id="namedview5"
   showgrid="false"
   inkscape:zoom="0.91875"
   inkscape:cx="807.0834"
   inkscape:cy="487.07483"
   inkscape:window-x="-8"
   inkscape:window-y="-8"
   inkscape:window-maximized="1"
   inkscape:current-layer="Capa_1" />
<path
   d="M182.334,148.042h-20.167V75.136c0-2.761-2.238-5-5-5H142.35c-2.762,0-5,2.239-5,5v72.906h-4.183V62.803  c0-2.761-2.238-5-5-5H113.35c-2.762,0-5,2.239-5,5v85.239H101.1c0.167-0.678,0.202-1.387,0.075-2.087L80.926,35.123  c-0.497-2.716-3.095-4.515-5.817-4.02l-24.413,4.46c-0.074,0.014-0.142,0.045-0.214,0.062c-0.471-0.147-0.962-0.249-1.481-0.249  H24.183c-2.762,0-5,2.239-5,5v107.667H10V34.292c0-2.761-2.238-5-5-5s-5,2.239-5,5v118.75c0,2.761,2.238,5,5,5h19.183H49h133.334  c2.762,0,5-2.239,5-5S185.096,148.042,182.334,148.042z M54,81.474l12.162,66.569H54V81.474z"
   id="path2"
   style="fill:#2a7fff" />
</svg>
